<svg xmlns="http://www.w3.org/2000/svg" viewBox="0 0 1024 1024" width="1024" height="1024">
    <defs>
      <radialGradient id="wb_wood" cx="0.5" cy="0.5" r="0.55">
        <stop offset="0" stop-color="#7a4a24"></stop>
        <stop offset="0.7" stop-color="#5a341a"></stop>
        <stop offset="1" stop-color="#2e1a0c"></stop>
      </radialGradient>
      <linearGradient id="wb_brass" x1="0" y1="0" x2="0" y2="1">
        <stop offset="0" stop-color="#f7d674"></stop>
        <stop offset="0.5" stop-color="#caa23a"></stop>
        <stop offset="1" stop-color="#7a5a14"></stop>
      </linearGradient>
      <radialGradient id="wb_ivory" cx="0.5" cy="0.45" r="0.6">
        <stop offset="0" stop-color="#fbf6e2"></stop>
        <stop offset="1" stop-color="#dac99a"></stop>
      </radialGradient>
    </defs>
    <circle cx="512" cy="512" r="480" fill="url(#wb_brass)"></circle>
    <circle cx="512" cy="512" r="468" fill="url(#wb_wood)" stroke="#2e1a0c" stroke-width="2"></circle>
    <circle cx="512" cy="512" r="390" fill="url(#wb_ivory)" stroke="url(#wb_brass)" stroke-width="6"></circle>
    <circle cx="512" cy="512" r="375" fill="none" stroke="#7a5a14" stroke-width="1"></circle><circle cx="512" cy="512" r="380" fill="none" stroke="#3a200e" stroke-width="0.5" opacity="0.3"></circle><circle cx="512" cy="512" r="372" fill="none" stroke="#3a200e" stroke-width="0.5" opacity="0.3"></circle><circle cx="512" cy="512" r="364" fill="none" stroke="#3a200e" stroke-width="0.5" opacity="0.3"></circle><circle cx="512" cy="512" r="356" fill="none" stroke="#3a200e" stroke-width="0.5" opacity="0.3"></circle><circle cx="512" cy="512" r="348" fill="none" stroke="#3a200e" stroke-width="0.5" opacity="0.3"></circle><circle cx="512" cy="512" r="340" fill="none" stroke="#3a200e" stroke-width="0.5" opacity="0.3"></circle><circle cx="512" cy="512" r="332" fill="none" stroke="#3a200e" stroke-width="0.5" opacity="0.3"></circle><circle cx="512" cy="512" r="324" fill="none" stroke="#3a200e" stroke-width="0.5" opacity="0.3"></circle><circle cx="512" cy="512" r="316" fill="none" stroke="#3a200e" stroke-width="0.5" opacity="0.3"></circle><circle cx="512" cy="512" r="308" fill="none" stroke="#3a200e" stroke-width="0.5" opacity="0.3"></circle><circle cx="693.3919469410525" cy="74.08110158965007" r="6" fill="url(#wb_brass)" stroke="#3a2c0e" stroke-width="1"></circle><circle cx="949.9188984103499" cy="330.6080530589474" r="6" fill="url(#wb_brass)" stroke="#3a2c0e" stroke-width="1"></circle><circle cx="949.9188984103499" cy="693.3919469410525" r="6" fill="url(#wb_brass)" stroke="#3a2c0e" stroke-width="1"></circle><circle cx="693.3919469410527" cy="949.9188984103499" r="6" fill="url(#wb_brass)" stroke="#3a2c0e" stroke-width="1"></circle><circle cx="330.6080530589477" cy="949.91889841035" r="6" fill="url(#wb_brass)" stroke="#3a2c0e" stroke-width="1"></circle><circle cx="74.08110158965002" cy="693.3919469410524" r="6" fill="url(#wb_brass)" stroke="#3a2c0e" stroke-width="1"></circle><circle cx="74.08110158965013" cy="330.60805305894735" r="6" fill="url(#wb_brass)" stroke="#3a2c0e" stroke-width="1"></circle><circle cx="330.6080530589476" cy="74.08110158965002" r="6" fill="url(#wb_brass)" stroke="#3a2c0e" stroke-width="1"></circle><g font-family="&#39;Trajan Pro&#39;, &#39;Times New Roman&#39;, serif" font-weight="700" fill="#2e1a0c" text-anchor="middle"><text x="512" y="178" font-size="44" transform="rotate(0 512 162)">XII</text><text x="687" y="224.89110867544645" font-size="44" transform="rotate(30 687 208.89110867544645)">I</text><text x="815.1088913245535" y="353" font-size="44" transform="rotate(60 815.1088913245535 337)">II</text><text x="862" y="528" font-size="44" transform="rotate(90 862 512)">III</text><text x="815.1088913245535" y="702.9999999999999" font-size="44" transform="rotate(120 815.1088913245535 686.9999999999999)">IIII</text><text x="687" y="831.1088913245535" font-size="44" transform="rotate(150 687 815.1088913245535)">V</text><text x="512" y="878" font-size="44" transform="rotate(180 512 862)">VI</text><text x="337" y="831.1088913245535" font-size="44" transform="rotate(210 337 815.1088913245535)">VII</text><text x="208.89110867544656" y="703.0000000000001" font-size="44" transform="rotate(240 208.89110867544656 687.0000000000001)">VIII</text><text x="162" y="528.0000000000001" font-size="44" transform="rotate(270 162 512.0000000000001)">IX</text><text x="208.8911086754465" y="353" font-size="44" transform="rotate(300 208.8911086754465 337)">X</text><text x="336.9999999999999" y="224.89110867544656" font-size="44" transform="rotate(330 336.9999999999999 208.89110867544656)">XI</text></g><line x1="512" y1="127" x2="512" y2="140" stroke="#2e1a0c" stroke-width="2"></line><line x1="552.2434583580466" y1="129.1090702832148" x2="551.511759115173" y2="136.0707235507927" stroke="#2e1a0c" stroke-width="0.8"></line><line x1="592.0460009648373" y1="135.41317371748482" x2="590.5906191291131" y2="142.26020692262148" stroke="#2e1a0c" stroke-width="0.8"></line><line x1="630.9715428343548" y1="145.84324122636588" x2="628.8084238737301" y2="152.50063684043198" stroke="#2e1a0c" stroke-width="0.8"></line><line x1="668.593607584183" y1="160.28499880759864" x2="665.7464510826525" y2="166.67981701109687" stroke="#2e1a0c" stroke-width="0.8"></line><line x1="704.5" y1="178.58021954299107" x2="698" y2="189.83854979218881" stroke="#2e1a0c" stroke-width="2"></line><line x1="738.2973221326022" y1="200.52845716564525" x2="734.1828253665549" y2="206.19157612626987" stroke="#2e1a0c" stroke-width="0.8"></line><line x1="769.6152834481604" y1="225.8892421912032" x2="764.9313692036484" y2="231.091255969545" stroke="#2e1a0c" stroke-width="0.8"></line><line x1="798.1107578087967" y1="254.38471655183957" x2="792.908744030455" y2="259.0686307963516" stroke="#2e1a0c" stroke-width="0.8"></line><line x1="823.4715428343548" y1="285.7026778673978" x2="817.8084238737301" y2="289.8171746334451" stroke="#2e1a0c" stroke-width="0.8"></line><line x1="845.4197804570089" y1="319.49999999999994" x2="834.1614502078112" y2="326" stroke="#2e1a0c" stroke-width="2"></line><line x1="863.7150011924014" y1="355.4063924158169" x2="857.3201829889031" y2="358.25354891734753" stroke="#2e1a0c" stroke-width="0.8"></line><line x1="878.1567587736341" y1="393.02845716564525" x2="871.499363159568" y2="395.19157612626987" stroke="#2e1a0c" stroke-width="0.8"></line><line x1="888.5868262825152" y1="431.9539990351626" x2="881.7397930773785" y2="433.40938087088693" stroke="#2e1a0c" stroke-width="0.8"></line><line x1="894.8909297167852" y1="471.7565416419534" x2="887.9292764492072" y2="472.488240884827" stroke="#2e1a0c" stroke-width="0.8"></line><line x1="897" y1="512" x2="884" y2="512" stroke="#2e1a0c" stroke-width="2"></line><line x1="894.8909297167852" y1="552.2434583580465" x2="887.9292764492074" y2="551.5117591151729" stroke="#2e1a0c" stroke-width="0.8"></line><line x1="888.5868262825152" y1="592.0460009648373" x2="881.7397930773785" y2="590.590619129113" stroke="#2e1a0c" stroke-width="0.8"></line><line x1="878.1567587736341" y1="630.9715428343548" x2="871.499363159568" y2="628.8084238737301" stroke="#2e1a0c" stroke-width="0.8"></line><line x1="863.7150011924014" y1="668.593607584183" x2="857.3201829889032" y2="665.7464510826524" stroke="#2e1a0c" stroke-width="0.8"></line><line x1="845.419780457009" y1="704.4999999999999" x2="834.1614502078112" y2="697.9999999999999" stroke="#2e1a0c" stroke-width="2"></line><line x1="823.4715428343548" y1="738.2973221326022" x2="817.8084238737301" y2="734.1828253665548" stroke="#2e1a0c" stroke-width="0.8"></line><line x1="798.1107578087967" y1="769.6152834481604" x2="792.908744030455" y2="764.9313692036484" stroke="#2e1a0c" stroke-width="0.8"></line><line x1="769.6152834481604" y1="798.1107578087967" x2="764.9313692036485" y2="792.908744030455" stroke="#2e1a0c" stroke-width="0.8"></line><line x1="738.2973221326022" y1="823.4715428343548" x2="734.1828253665549" y2="817.8084238737301" stroke="#2e1a0c" stroke-width="0.8"></line><line x1="704.5" y1="845.419780457009" x2="698" y2="834.1614502078112" stroke="#2e1a0c" stroke-width="2"></line><line x1="668.5936075841831" y1="863.7150011924014" x2="665.7464510826526" y2="857.3201829889031" stroke="#2e1a0c" stroke-width="0.8"></line><line x1="630.9715428343548" y1="878.1567587736341" x2="628.8084238737301" y2="871.499363159568" stroke="#2e1a0c" stroke-width="0.8"></line><line x1="592.0460009648373" y1="888.5868262825152" x2="590.5906191291131" y2="881.7397930773785" stroke="#2e1a0c" stroke-width="0.8"></line><line x1="552.2434583580467" y1="894.8909297167852" x2="551.5117591151732" y2="887.9292764492072" stroke="#2e1a0c" stroke-width="0.8"></line><line x1="512" y1="897" x2="512" y2="884" stroke="#2e1a0c" stroke-width="2"></line><line x1="471.75654164195356" y1="894.8909297167852" x2="472.4882408848271" y2="887.9292764492074" stroke="#2e1a0c" stroke-width="0.8"></line><line x1="431.9539990351628" y1="888.5868262825152" x2="433.40938087088705" y2="881.7397930773785" stroke="#2e1a0c" stroke-width="0.8"></line><line x1="393.02845716564514" y1="878.1567587736341" x2="395.19157612626975" y2="871.499363159568" stroke="#2e1a0c" stroke-width="0.8"></line><line x1="355.4063924158171" y1="863.7150011924014" x2="358.25354891734764" y2="857.3201829889032" stroke="#2e1a0c" stroke-width="0.8"></line><line x1="319.49999999999994" y1="845.4197804570089" x2="326" y2="834.1614502078112" stroke="#2e1a0c" stroke-width="2"></line><line x1="285.7026778673979" y1="823.4715428343548" x2="289.81717463344523" y2="817.8084238737301" stroke="#2e1a0c" stroke-width="0.8"></line><line x1="254.38471655183957" y1="798.1107578087967" x2="259.0686307963516" y2="792.908744030455" stroke="#2e1a0c" stroke-width="0.8"></line><line x1="225.88924219120332" y1="769.6152834481604" x2="231.09125596954505" y2="764.9313692036485" stroke="#2e1a0c" stroke-width="0.8"></line><line x1="200.52845716564525" y1="738.2973221326022" x2="206.19157612626992" y2="734.1828253665549" stroke="#2e1a0c" stroke-width="0.8"></line><line x1="178.58021954299124" y1="704.5000000000002" x2="189.83854979218893" y2="698.0000000000002" stroke="#2e1a0c" stroke-width="2"></line><line x1="160.28499880759864" y1="668.593607584183" x2="166.67981701109682" y2="665.7464510826525" stroke="#2e1a0c" stroke-width="0.8"></line><line x1="145.84324122636588" y1="630.9715428343548" x2="152.50063684043198" y2="628.8084238737301" stroke="#2e1a0c" stroke-width="0.8"></line><line x1="135.41317371748488" y1="592.0460009648375" x2="142.26020692262148" y2="590.5906191291132" stroke="#2e1a0c" stroke-width="0.8"></line><line x1="129.10907028321475" y1="552.2434583580465" x2="136.07072355079265" y2="551.5117591151729" stroke="#2e1a0c" stroke-width="0.8"></line><line x1="127" y1="512.0000000000001" x2="140" y2="512.0000000000001" stroke="#2e1a0c" stroke-width="2"></line><line x1="129.10907028321475" y1="471.7565416419536" x2="136.07072355079265" y2="472.4882408848272" stroke="#2e1a0c" stroke-width="0.8"></line><line x1="135.41317371748477" y1="431.95399903516295" x2="142.26020692262142" y2="433.4093808708873" stroke="#2e1a0c" stroke-width="0.8"></line><line x1="145.84324122636588" y1="393.0284571656453" x2="152.50063684043192" y2="395.19157612627" stroke="#2e1a0c" stroke-width="0.8"></line><line x1="160.2849988075987" y1="355.40639241581675" x2="166.67981701109693" y2="358.2535489173474" stroke="#2e1a0c" stroke-width="0.8"></line><line x1="178.58021954299113" y1="319.49999999999994" x2="189.83854979218881" y2="326" stroke="#2e1a0c" stroke-width="2"></line><line x1="200.5284571656452" y1="285.70267786739794" x2="206.1915761262698" y2="289.81717463344523" stroke="#2e1a0c" stroke-width="0.8"></line><line x1="225.8892421912031" y1="254.38471655183974" x2="231.09125596954487" y2="259.0686307963517" stroke="#2e1a0c" stroke-width="0.8"></line><line x1="254.38471655183963" y1="225.8892421912032" x2="259.0686307963516" y2="231.091255969545" stroke="#2e1a0c" stroke-width="0.8"></line><line x1="285.70267786739777" y1="200.52845716564525" x2="289.81717463344506" y2="206.19157612626992" stroke="#2e1a0c" stroke-width="0.8"></line><line x1="319.49999999999983" y1="178.58021954299124" x2="325.99999999999983" y2="189.83854979218893" stroke="#2e1a0c" stroke-width="2"></line><line x1="355.406392415817" y1="160.28499880759864" x2="358.25354891734753" y2="166.67981701109682" stroke="#2e1a0c" stroke-width="0.8"></line><line x1="393.02845716564514" y1="145.84324122636588" x2="395.19157612626975" y2="152.50063684043198" stroke="#2e1a0c" stroke-width="0.8"></line><line x1="431.95399903516244" y1="135.41317371748488" x2="433.40938087088676" y2="142.26020692262148" stroke="#2e1a0c" stroke-width="0.8"></line><line x1="471.75654164195345" y1="129.1090702832148" x2="472.488240884827" y2="136.0707235507927" stroke="#2e1a0c" stroke-width="0.8"></line><circle cx="512" cy="512" r="20" fill="url(#wb_brass)" stroke="#3a2c0e" stroke-width="2"></circle><circle cx="512" cy="512" r="6" fill="#3a2c0e"></circle></svg>