<svg xmlns="http://www.w3.org/2000/svg" viewBox="0 0 1024 1024" width="1024" height="1024">
    <defs>
      <radialGradient id="ad_bg" cx="0.5" cy="0.5" r="0.6">
        <stop offset="0" stop-color="#1a1a1a"></stop>
        <stop offset="1" stop-color="#050505"></stop>
      </radialGradient>
      <linearGradient id="ad_gold" x1="0" y1="0" x2="0" y2="1">
        <stop offset="0" stop-color="#f7d674"></stop>
        <stop offset="1" stop-color="#9a7616"></stop>
      </linearGradient>
    </defs>
    <circle cx="512" cy="512" r="480" fill="url(#ad_bg)" stroke="url(#ad_gold)" stroke-width="6"></circle>
    <circle cx="512" cy="512" r="462" fill="none" stroke="url(#ad_gold)" stroke-width="1.5"></circle><line x1="512" y1="62" x2="512" y2="432" stroke="url(#ad_gold)" stroke-width="1.5" opacity="0.5"></line><line x1="559.037808470444" y1="64.46514708427702" x2="555.9019545724144" y2="94.30080394532524" stroke="url(#ad_gold)" stroke-width="0.6" opacity="0.25"></line><line x1="605.5602608679917" y1="71.83357966978747" x2="599.3229101434589" y2="101.17800769180161" stroke="url(#ad_gold)" stroke-width="0.6" opacity="0.25"></line><line x1="651.0576474687264" y1="84.02456766718092" x2="641.7871376374779" y2="112.55626315603553" stroke="url(#ad_gold)" stroke-width="0.6" opacity="0.25"></line><line x1="695.03148938411" y1="100.90454406082961" x2="682.8293900918361" y2="128.31090779010765" stroke="url(#ad_gold)" stroke-width="0.6" opacity="0.25"></line><line x1="737" y1="122.2885682970026" x2="552" y2="442.7179676972449" stroke="url(#ad_gold)" stroke-width="1.5" opacity="0.5"></line><line x1="776.5033635316129" y1="147.94235253127363" x2="758.8698059628387" y2="172.21286236252206" stroke="url(#ad_gold)" stroke-width="0.6" opacity="0.25"></line><line x1="813.1087728614862" y1="177.58482853517256" x2="793.0348546707205" y2="199.87917329949443" stroke="url(#ad_gold)" stroke-width="0.6" opacity="0.25"></line><line x1="846.4151714648274" y1="210.89122713851378" x2="824.1208267005056" y2="230.96514532927955" stroke="url(#ad_gold)" stroke-width="0.6" opacity="0.25"></line><line x1="876.0576474687264" y1="247.49663646838707" x2="851.7871376374779" y2="265.1301940371613" stroke="url(#ad_gold)" stroke-width="0.6" opacity="0.25"></line><line x1="901.7114317029973" y1="286.99999999999994" x2="581.282032302755" y2="472" stroke="url(#ad_gold)" stroke-width="1.5" opacity="0.5"></line><line x1="923.0954559391704" y1="328.9685106158899" x2="895.6890922098924" y2="341.1706099081639" stroke="url(#ad_gold)" stroke-width="0.6" opacity="0.25"></line><line x1="939.9754323328191" y1="372.9423525312736" x2="911.4437368439644" y2="382.21286236252206" stroke="url(#ad_gold)" stroke-width="0.6" opacity="0.25"></line><line x1="952.1664203302125" y1="418.43973913200824" x2="922.8219923081983" y2="424.67708985654104" stroke="url(#ad_gold)" stroke-width="0.6" opacity="0.25"></line><line x1="959.5348529157229" y1="464.9621915295559" x2="929.6991960546748" y2="468.09804542758553" stroke="url(#ad_gold)" stroke-width="0.6" opacity="0.25"></line><line x1="962" y1="512" x2="592" y2="512" stroke="url(#ad_gold)" stroke-width="1.5" opacity="0.5"></line><line x1="959.534852915723" y1="559.037808470444" x2="929.6991960546748" y2="555.9019545724144" stroke="url(#ad_gold)" stroke-width="0.6" opacity="0.25"></line><line x1="952.1664203302125" y1="605.5602608679916" x2="922.8219923081983" y2="599.3229101434588" stroke="url(#ad_gold)" stroke-width="0.6" opacity="0.25"></line><line x1="939.9754323328191" y1="651.0576474687264" x2="911.4437368439645" y2="641.7871376374778" stroke="url(#ad_gold)" stroke-width="0.6" opacity="0.25"></line><line x1="923.0954559391705" y1="695.03148938411" x2="895.6890922098924" y2="682.829390091836" stroke="url(#ad_gold)" stroke-width="0.6" opacity="0.25"></line><line x1="901.7114317029974" y1="736.9999999999999" x2="581.282032302755" y2="552" stroke="url(#ad_gold)" stroke-width="1.5" opacity="0.5"></line><line x1="876.0576474687264" y1="776.5033635316129" x2="851.7871376374779" y2="758.8698059628387" stroke="url(#ad_gold)" stroke-width="0.6" opacity="0.25"></line><line x1="846.4151714648274" y1="813.1087728614862" x2="824.1208267005056" y2="793.0348546707205" stroke="url(#ad_gold)" stroke-width="0.6" opacity="0.25"></line><line x1="813.1087728614863" y1="846.4151714648274" x2="793.0348546707205" y2="824.1208267005055" stroke="url(#ad_gold)" stroke-width="0.6" opacity="0.25"></line><line x1="776.5033635316129" y1="876.0576474687264" x2="758.8698059628388" y2="851.7871376374778" stroke="url(#ad_gold)" stroke-width="0.6" opacity="0.25"></line><line x1="737" y1="901.7114317029974" x2="552" y2="581.282032302755" stroke="url(#ad_gold)" stroke-width="1.5" opacity="0.5"></line><line x1="695.0314893841102" y1="923.0954559391703" x2="682.8293900918362" y2="895.6890922098924" stroke="url(#ad_gold)" stroke-width="0.6" opacity="0.25"></line><line x1="651.0576474687264" y1="939.9754323328191" x2="641.7871376374779" y2="911.4437368439644" stroke="url(#ad_gold)" stroke-width="0.6" opacity="0.25"></line><line x1="605.5602608679917" y1="952.1664203302125" x2="599.3229101434589" y2="922.8219923081983" stroke="url(#ad_gold)" stroke-width="0.6" opacity="0.25"></line><line x1="559.0378084704441" y1="959.5348529157229" x2="555.9019545724145" y2="929.6991960546748" stroke="url(#ad_gold)" stroke-width="0.6" opacity="0.25"></line><line x1="512" y1="962" x2="512" y2="592" stroke="url(#ad_gold)" stroke-width="1.5" opacity="0.5"></line><line x1="464.9621915295561" y1="959.534852915723" x2="468.0980454275857" y2="929.6991960546748" stroke="url(#ad_gold)" stroke-width="0.6" opacity="0.25"></line><line x1="418.4397391320084" y1="952.1664203302125" x2="424.6770898565412" y2="922.8219923081983" stroke="url(#ad_gold)" stroke-width="0.6" opacity="0.25"></line><line x1="372.9423525312735" y1="939.9754323328191" x2="382.21286236252195" y2="911.4437368439644" stroke="url(#ad_gold)" stroke-width="0.6" opacity="0.25"></line><line x1="328.96851061589007" y1="923.0954559391705" x2="341.17060990816407" y2="895.6890922098925" stroke="url(#ad_gold)" stroke-width="0.6" opacity="0.25"></line><line x1="286.99999999999994" y1="901.7114317029973" x2="472" y2="581.282032302755" stroke="url(#ad_gold)" stroke-width="1.5" opacity="0.5"></line><line x1="247.49663646838712" y1="876.0576474687264" x2="265.13019403716135" y2="851.787137637478" stroke="url(#ad_gold)" stroke-width="0.6" opacity="0.25"></line><line x1="210.89122713851378" y1="846.4151714648274" x2="230.96514532927955" y2="824.1208267005056" stroke="url(#ad_gold)" stroke-width="0.6" opacity="0.25"></line><line x1="177.58482853517268" y1="813.1087728614864" x2="199.87917329949448" y2="793.0348546707205" stroke="url(#ad_gold)" stroke-width="0.6" opacity="0.25"></line><line x1="147.94235253127368" y1="776.5033635316129" x2="172.21286236252212" y2="758.8698059628388" stroke="url(#ad_gold)" stroke-width="0.6" opacity="0.25"></line><line x1="122.28856829700271" y1="737.0000000000002" x2="442.71796769724494" y2="552" stroke="url(#ad_gold)" stroke-width="1.5" opacity="0.5"></line><line x1="100.90454406082955" y1="695.03148938411" x2="128.3109077901076" y2="682.8293900918361" stroke="url(#ad_gold)" stroke-width="0.6" opacity="0.25"></line><line x1="84.02456766718092" y1="651.0576474687264" x2="112.55626315603553" y2="641.7871376374779" stroke="url(#ad_gold)" stroke-width="0.6" opacity="0.25"></line><line x1="71.83357966978747" y1="605.5602608679919" x2="101.17800769180167" y2="599.3229101434591" stroke="url(#ad_gold)" stroke-width="0.6" opacity="0.25"></line><line x1="64.46514708427696" y1="559.037808470444" x2="94.30080394532519" y2="555.9019545724144" stroke="url(#ad_gold)" stroke-width="0.6" opacity="0.25"></line><line x1="62" y1="512.0000000000001" x2="432" y2="512" stroke="url(#ad_gold)" stroke-width="1.5" opacity="0.5"></line><line x1="64.46514708427696" y1="464.96219152955615" x2="94.30080394532519" y2="468.09804542758576" stroke="url(#ad_gold)" stroke-width="0.6" opacity="0.25"></line><line x1="71.83357966978741" y1="418.43973913200864" x2="101.17800769180155" y2="424.6770898565414" stroke="url(#ad_gold)" stroke-width="0.6" opacity="0.25"></line><line x1="84.02456766718086" y1="372.94235253127374" x2="112.55626315603547" y2="382.2128623625222" stroke="url(#ad_gold)" stroke-width="0.6" opacity="0.25"></line><line x1="100.90454406082966" y1="328.9685106158897" x2="128.3109077901077" y2="341.1706099081638" stroke="url(#ad_gold)" stroke-width="0.6" opacity="0.25"></line><line x1="122.28856829700266" y1="286.99999999999994" x2="442.71796769724494" y2="472" stroke="url(#ad_gold)" stroke-width="1.5" opacity="0.5"></line><line x1="147.94235253127357" y1="247.49663646838718" x2="172.212862362522" y2="265.13019403716135" stroke="url(#ad_gold)" stroke-width="0.6" opacity="0.25"></line><line x1="177.58482853517245" y1="210.891227138514" x2="199.87917329949425" y2="230.96514532927972" stroke="url(#ad_gold)" stroke-width="0.6" opacity="0.25"></line><line x1="210.89122713851384" y1="177.58482853517256" x2="230.9651453292796" y2="199.87917329949443" stroke="url(#ad_gold)" stroke-width="0.6" opacity="0.25"></line><line x1="247.496636468387" y1="147.94235253127368" x2="265.1301940371612" y2="172.21286236252212" stroke="url(#ad_gold)" stroke-width="0.6" opacity="0.25"></line><line x1="286.9999999999998" y1="122.28856829700271" x2="471.99999999999994" y2="442.71796769724494" stroke="url(#ad_gold)" stroke-width="1.5" opacity="0.5"></line><line x1="328.96851061588995" y1="100.90454406082955" x2="341.1706099081639" y2="128.3109077901076" stroke="url(#ad_gold)" stroke-width="0.6" opacity="0.25"></line><line x1="372.9423525312735" y1="84.02456766718092" x2="382.21286236252195" y2="112.55626315603553" stroke="url(#ad_gold)" stroke-width="0.6" opacity="0.25"></line><line x1="418.43973913200807" y1="71.83357966978747" x2="424.6770898565409" y2="101.17800769180167" stroke="url(#ad_gold)" stroke-width="0.6" opacity="0.25"></line><line x1="464.962191529556" y1="64.46514708427702" x2="468.0980454275856" y2="94.30080394532524" stroke="url(#ad_gold)" stroke-width="0.6" opacity="0.25"></line><text x="512" y="134" font-family="&#39;Poiret One&#39;, &#39;Futura&#39;, sans-serif" font-weight="800" font-size="64" fill="url(#ad_gold)" text-anchor="middle" letter-spacing="2">12</text><polygon points="712,155.5898384862245 722,165.5898384862245 712,175.5898384862245 702,165.5898384862245" fill="url(#ad_gold)"></polygon><polygon points="858.4101615137754,301.99999999999994 868.4101615137754,311.99999999999994 858.4101615137754,321.99999999999994 848.4101615137754,311.99999999999994" fill="url(#ad_gold)"></polygon><text x="912" y="534" font-family="&#39;Poiret One&#39;, &#39;Futura&#39;, sans-serif" font-weight="800" font-size="64" fill="url(#ad_gold)" text-anchor="middle" letter-spacing="2">3</text><polygon points="858.4101615137755,701.9999999999999 868.4101615137755,711.9999999999999 858.4101615137755,721.9999999999999 848.4101615137755,711.9999999999999" fill="url(#ad_gold)"></polygon><polygon points="712,848.4101615137755 722,858.4101615137755 712,868.4101615137755 702,858.4101615137755" fill="url(#ad_gold)"></polygon><text x="512" y="934" font-family="&#39;Poiret One&#39;, &#39;Futura&#39;, sans-serif" font-weight="800" font-size="64" fill="url(#ad_gold)" text-anchor="middle" letter-spacing="2">6</text><polygon points="311.99999999999994,848.4101615137754 321.99999999999994,858.4101615137754 311.99999999999994,868.4101615137754 301.99999999999994,858.4101615137754" fill="url(#ad_gold)"></polygon><polygon points="165.58983848622466,702.0000000000002 175.58983848622466,712.0000000000002 165.58983848622466,722.0000000000002 155.58983848622466,712.0000000000002" fill="url(#ad_gold)"></polygon><text x="112" y="534.0000000000001" font-family="&#39;Poiret One&#39;, &#39;Futura&#39;, sans-serif" font-weight="800" font-size="64" fill="url(#ad_gold)" text-anchor="middle" letter-spacing="2">9</text><polygon points="165.58983848622455,301.99999999999994 175.58983848622455,311.99999999999994 165.58983848622455,321.99999999999994 155.58983848622455,311.99999999999994" fill="url(#ad_gold)"></polygon><polygon points="311.99999999999983,155.58983848622466 321.99999999999983,165.58983848622466 311.99999999999983,175.58983848622466 301.99999999999983,165.58983848622466" fill="url(#ad_gold)"></polygon><circle cx="512" cy="512" r="14" fill="url(#ad_gold)"></circle><circle cx="512" cy="512" r="6" fill="#050505"></circle></svg>