<svg xmlns="http://www.w3.org/2000/svg" viewBox="0 0 1024 1024" width="1024" height="1024">
    <rect width="1024" height="1024" fill="#a8a39a"></rect>
    <circle cx="512" cy="512" r="480" fill="#7a766d" stroke="#2a2824" stroke-width="8"></circle>
    <circle cx="512" cy="512" r="450" fill="#9a958a"></circle><text x="512" y="112" font-family="&#39;JetBrains Mono&#39;, &#39;Courier New&#39;, monospace" font-weight="700" font-size="34" fill="#1a1814" text-anchor="middle" transform="rotate(0 512 102)">00</text><text x="618.1158084920335" y="125.97041122148198" font-family="&#39;JetBrains Mono&#39;, &#39;Courier New&#39;, monospace" font-weight="700" font-size="24" fill="#1a1814" text-anchor="middle" transform="rotate(15 618.1158084920335 115.97041122148198)">01</text><text x="717" y="166.92958444838013" font-family="&#39;JetBrains Mono&#39;, &#39;Courier New&#39;, monospace" font-weight="700" font-size="24" fill="#1a1814" text-anchor="middle" transform="rotate(30 717 156.92958444838013)">02</text><text x="801.9137802864844" y="232.0862197135155" font-family="&#39;JetBrains Mono&#39;, &#39;Courier New&#39;, monospace" font-weight="700" font-size="24" fill="#1a1814" text-anchor="middle" transform="rotate(45 801.9137802864844 222.0862197135155)">03</text><text x="867.0704155516198" y="316.99999999999994" font-family="&#39;JetBrains Mono&#39;, &#39;Courier New&#39;, monospace" font-weight="700" font-size="24" fill="#1a1814" text-anchor="middle" transform="rotate(60 867.0704155516198 306.99999999999994)">04</text><text x="908.029588778518" y="415.8841915079665" font-family="&#39;JetBrains Mono&#39;, &#39;Courier New&#39;, monospace" font-weight="700" font-size="24" fill="#1a1814" text-anchor="middle" transform="rotate(75 908.029588778518 405.8841915079665)">05</text><text x="922" y="522" font-family="&#39;JetBrains Mono&#39;, &#39;Courier New&#39;, monospace" font-weight="700" font-size="34" fill="#1a1814" text-anchor="middle" transform="rotate(90 922 512)">06</text><text x="908.029588778518" y="628.1158084920336" font-family="&#39;JetBrains Mono&#39;, &#39;Courier New&#39;, monospace" font-weight="700" font-size="24" fill="#1a1814" text-anchor="middle" transform="rotate(105 908.029588778518 618.1158084920336)">07</text><text x="867.0704155516198" y="726.9999999999999" font-family="&#39;JetBrains Mono&#39;, &#39;Courier New&#39;, monospace" font-weight="700" font-size="24" fill="#1a1814" text-anchor="middle" transform="rotate(120 867.0704155516198 716.9999999999999)">08</text><text x="801.9137802864846" y="811.9137802864844" font-family="&#39;JetBrains Mono&#39;, &#39;Courier New&#39;, monospace" font-weight="700" font-size="24" fill="#1a1814" text-anchor="middle" transform="rotate(135 801.9137802864846 801.9137802864844)">09</text><text x="717" y="877.0704155516198" font-family="&#39;JetBrains Mono&#39;, &#39;Courier New&#39;, monospace" font-weight="700" font-size="24" fill="#1a1814" text-anchor="middle" transform="rotate(150 717 867.0704155516198)">10</text><text x="618.1158084920336" y="918.029588778518" font-family="&#39;JetBrains Mono&#39;, &#39;Courier New&#39;, monospace" font-weight="700" font-size="24" fill="#1a1814" text-anchor="middle" transform="rotate(165 618.1158084920336 908.029588778518)">11</text><text x="512" y="932" font-family="&#39;JetBrains Mono&#39;, &#39;Courier New&#39;, monospace" font-weight="700" font-size="34" fill="#1a1814" text-anchor="middle" transform="rotate(180 512 922)">12</text><text x="405.88419150796665" y="918.029588778518" font-family="&#39;JetBrains Mono&#39;, &#39;Courier New&#39;, monospace" font-weight="700" font-size="24" fill="#1a1814" text-anchor="middle" transform="rotate(195 405.88419150796665 908.029588778518)">13</text><text x="306.99999999999994" y="877.0704155516198" font-family="&#39;JetBrains Mono&#39;, &#39;Courier New&#39;, monospace" font-weight="700" font-size="24" fill="#1a1814" text-anchor="middle" transform="rotate(210 306.99999999999994 867.0704155516198)">14</text><text x="222.08621971351556" y="811.9137802864846" font-family="&#39;JetBrains Mono&#39;, &#39;Courier New&#39;, monospace" font-weight="700" font-size="24" fill="#1a1814" text-anchor="middle" transform="rotate(225 222.08621971351556 801.9137802864846)">15</text><text x="156.92958444838024" y="727.0000000000002" font-family="&#39;JetBrains Mono&#39;, &#39;Courier New&#39;, monospace" font-weight="700" font-size="24" fill="#1a1814" text-anchor="middle" transform="rotate(240 156.92958444838024 717.0000000000002)">16</text><text x="115.97041122148198" y="628.1158084920335" font-family="&#39;JetBrains Mono&#39;, &#39;Courier New&#39;, monospace" font-weight="700" font-size="24" fill="#1a1814" text-anchor="middle" transform="rotate(255 115.97041122148198 618.1158084920335)">17</text><text x="102" y="522.0000000000001" font-family="&#39;JetBrains Mono&#39;, &#39;Courier New&#39;, monospace" font-weight="700" font-size="34" fill="#1a1814" text-anchor="middle" transform="rotate(270 102 512.0000000000001)">18</text><text x="115.97041122148204" y="415.8841915079663" font-family="&#39;JetBrains Mono&#39;, &#39;Courier New&#39;, monospace" font-weight="700" font-size="24" fill="#1a1814" text-anchor="middle" transform="rotate(285 115.97041122148204 405.8841915079663)">19</text><text x="156.92958444838018" y="316.99999999999994" font-family="&#39;JetBrains Mono&#39;, &#39;Courier New&#39;, monospace" font-weight="700" font-size="24" fill="#1a1814" text-anchor="middle" transform="rotate(300 156.92958444838018 306.99999999999994)">20</text><text x="222.08621971351545" y="232.08621971351556" font-family="&#39;JetBrains Mono&#39;, &#39;Courier New&#39;, monospace" font-weight="700" font-size="24" fill="#1a1814" text-anchor="middle" transform="rotate(315 222.08621971351545 222.08621971351556)">21</text><text x="306.99999999999983" y="166.92958444838024" font-family="&#39;JetBrains Mono&#39;, &#39;Courier New&#39;, monospace" font-weight="700" font-size="24" fill="#1a1814" text-anchor="middle" transform="rotate(330 306.99999999999983 156.92958444838024)">22</text><text x="405.88419150796653" y="125.97041122148198" font-family="&#39;JetBrains Mono&#39;, &#39;Courier New&#39;, monospace" font-weight="700" font-size="24" fill="#1a1814" text-anchor="middle" transform="rotate(345 405.88419150796653 115.97041122148198)">23</text><line x1="512" y1="62" x2="512" y2="77" stroke="#1a1814" stroke-width="3"></line><line x1="559.037808470444" y1="64.46514708427702" x2="558.2015807643028" y2="72.4213222472232" stroke="#1a1814" stroke-width="1"></line><line x1="605.5602608679917" y1="71.83357966978747" x2="603.8969673414497" y2="79.65876047565791" stroke="#1a1814" stroke-width="1"></line><line x1="651.0576474687264" y1="84.02456766718092" x2="648.5855115137267" y2="91.63301979754215" stroke="#1a1814" stroke-width="1"></line><line x1="695.03148938411" y1="100.90454406082961" x2="691.7775962395037" y2="108.2129077219704" stroke="#1a1814" stroke-width="1"></line><line x1="737" y1="122.2885682970026" x2="729.5" y2="135.27894935376918" stroke="#1a1814" stroke-width="3"></line><line x1="776.5033635316129" y1="147.94235253127363" x2="771.8010815132732" y2="154.41448848627323" stroke="#1a1814" stroke-width="1"></line><line x1="813.1087728614862" y1="177.58482853517256" x2="807.7557280106153" y2="183.52998713899177" stroke="#1a1814" stroke-width="1"></line><line x1="846.4151714648274" y1="210.89122713851378" x2="840.4700128610082" y2="216.24427198938469" stroke="#1a1814" stroke-width="1"></line><line x1="876.0576474687264" y1="247.49663646838707" x2="869.5855115137267" y2="252.19891848672688" stroke="#1a1814" stroke-width="1"></line><line x1="901.7114317029973" y1="286.99999999999994" x2="888.7210506462308" y2="294.49999999999994" stroke="#1a1814" stroke-width="3"></line><line x1="923.0954559391704" y1="328.9685106158899" x2="915.7870922780296" y2="332.2224037604963" stroke="#1a1814" stroke-width="1"></line><line x1="939.9754323328191" y1="372.9423525312736" x2="932.3669802024579" y2="375.4144884862732" stroke="#1a1814" stroke-width="1"></line><line x1="952.1664203302125" y1="418.43973913200824" x2="944.3412395243421" y2="420.1030326585503" stroke="#1a1814" stroke-width="1"></line><line x1="959.5348529157229" y1="464.9621915295559" x2="951.5786777527768" y2="465.79841923569717" stroke="#1a1814" stroke-width="1"></line><line x1="962" y1="512" x2="947" y2="512" stroke="#1a1814" stroke-width="3"></line><line x1="959.534852915723" y1="559.037808470444" x2="951.5786777527769" y2="558.2015807643028" stroke="#1a1814" stroke-width="1"></line><line x1="952.1664203302125" y1="605.5602608679916" x2="944.3412395243421" y2="603.8969673414496" stroke="#1a1814" stroke-width="1"></line><line x1="939.9754323328191" y1="651.0576474687264" x2="932.3669802024579" y2="648.5855115137267" stroke="#1a1814" stroke-width="1"></line><line x1="923.0954559391705" y1="695.03148938411" x2="915.7870922780296" y2="691.7775962395036" stroke="#1a1814" stroke-width="1"></line><line x1="901.7114317029974" y1="736.9999999999999" x2="888.7210506462309" y2="729.4999999999999" stroke="#1a1814" stroke-width="3"></line><line x1="876.0576474687264" y1="776.5033635316129" x2="869.5855115137267" y2="771.8010815132731" stroke="#1a1814" stroke-width="1"></line><line x1="846.4151714648274" y1="813.1087728614862" x2="840.4700128610082" y2="807.7557280106153" stroke="#1a1814" stroke-width="1"></line><line x1="813.1087728614863" y1="846.4151714648274" x2="807.7557280106154" y2="840.4700128610082" stroke="#1a1814" stroke-width="1"></line><line x1="776.5033635316129" y1="876.0576474687264" x2="771.8010815132732" y2="869.5855115137267" stroke="#1a1814" stroke-width="1"></line><line x1="737" y1="901.7114317029974" x2="729.5" y2="888.7210506462309" stroke="#1a1814" stroke-width="3"></line><line x1="695.0314893841102" y1="923.0954559391703" x2="691.7775962395037" y2="915.7870922780296" stroke="#1a1814" stroke-width="1"></line><line x1="651.0576474687264" y1="939.9754323328191" x2="648.5855115137268" y2="932.3669802024579" stroke="#1a1814" stroke-width="1"></line><line x1="605.5602608679917" y1="952.1664203302125" x2="603.8969673414497" y2="944.3412395243421" stroke="#1a1814" stroke-width="1"></line><line x1="559.0378084704441" y1="959.5348529157229" x2="558.201580764303" y2="951.5786777527768" stroke="#1a1814" stroke-width="1"></line><line x1="512" y1="962" x2="512" y2="947" stroke="#1a1814" stroke-width="3"></line><line x1="464.9621915295561" y1="959.534852915723" x2="465.79841923569734" y2="951.5786777527769" stroke="#1a1814" stroke-width="1"></line><line x1="418.4397391320084" y1="952.1664203302125" x2="420.1030326585505" y2="944.3412395243421" stroke="#1a1814" stroke-width="1"></line><line x1="372.9423525312735" y1="939.9754323328191" x2="375.4144884862731" y2="932.3669802024579" stroke="#1a1814" stroke-width="1"></line><line x1="328.96851061589007" y1="923.0954559391705" x2="332.2224037604965" y2="915.7870922780296" stroke="#1a1814" stroke-width="1"></line><line x1="286.99999999999994" y1="901.7114317029973" x2="294.49999999999994" y2="888.7210506462308" stroke="#1a1814" stroke-width="3"></line><line x1="247.49663646838712" y1="876.0576474687264" x2="252.19891848672694" y2="869.5855115137268" stroke="#1a1814" stroke-width="1"></line><line x1="210.89122713851378" y1="846.4151714648274" x2="216.24427198938469" y2="840.4700128610082" stroke="#1a1814" stroke-width="1"></line><line x1="177.58482853517268" y1="813.1087728614864" x2="183.52998713899183" y2="807.7557280106155" stroke="#1a1814" stroke-width="1"></line><line x1="147.94235253127368" y1="776.5033635316129" x2="154.41448848627329" y2="771.8010815132732" stroke="#1a1814" stroke-width="1"></line><line x1="122.28856829700271" y1="737.0000000000002" x2="135.2789493537693" y2="729.5000000000002" stroke="#1a1814" stroke-width="3"></line><line x1="100.90454406082955" y1="695.03148938411" x2="108.2129077219704" y2="691.7775962395036" stroke="#1a1814" stroke-width="1"></line><line x1="84.02456766718092" y1="651.0576474687264" x2="91.63301979754215" y2="648.5855115137268" stroke="#1a1814" stroke-width="1"></line><line x1="71.83357966978747" y1="605.5602608679919" x2="79.65876047565791" y2="603.8969673414498" stroke="#1a1814" stroke-width="1"></line><line x1="64.46514708427696" y1="559.037808470444" x2="72.42132224722315" y2="558.2015807643028" stroke="#1a1814" stroke-width="1"></line><line x1="62" y1="512.0000000000001" x2="77" y2="512.0000000000001" stroke="#1a1814" stroke-width="3"></line><line x1="64.46514708427696" y1="464.96219152955615" x2="72.42132224722315" y2="465.7984192356974" stroke="#1a1814" stroke-width="1"></line><line x1="71.83357966978741" y1="418.43973913200864" x2="79.65876047565786" y2="420.1030326585507" stroke="#1a1814" stroke-width="1"></line><line x1="84.02456766718086" y1="372.94235253127374" x2="91.63301979754209" y2="375.4144884862733" stroke="#1a1814" stroke-width="1"></line><line x1="100.90454406082966" y1="328.9685106158897" x2="108.21290772197045" y2="332.22240376049615" stroke="#1a1814" stroke-width="1"></line><line x1="122.28856829700266" y1="286.99999999999994" x2="135.27894935376924" y2="294.49999999999994" stroke="#1a1814" stroke-width="3"></line><line x1="147.94235253127357" y1="247.49663646838718" x2="154.41448848627317" y2="252.198918486727" stroke="#1a1814" stroke-width="1"></line><line x1="177.58482853517245" y1="210.891227138514" x2="183.5299871389916" y2="216.24427198938486" stroke="#1a1814" stroke-width="1"></line><line x1="210.89122713851384" y1="177.58482853517256" x2="216.24427198938469" y2="183.52998713899177" stroke="#1a1814" stroke-width="1"></line><line x1="247.496636468387" y1="147.94235253127368" x2="252.19891848672677" y2="154.41448848627329" stroke="#1a1814" stroke-width="1"></line><line x1="286.9999999999998" y1="122.28856829700271" x2="294.4999999999998" y2="135.2789493537693" stroke="#1a1814" stroke-width="3"></line><line x1="328.96851061588995" y1="100.90454406082955" x2="332.2224037604963" y2="108.2129077219704" stroke="#1a1814" stroke-width="1"></line><line x1="372.9423525312735" y1="84.02456766718092" x2="375.4144884862731" y2="91.63301979754215" stroke="#1a1814" stroke-width="1"></line><line x1="418.43973913200807" y1="71.83357966978747" x2="420.10303265855015" y2="79.65876047565791" stroke="#1a1814" stroke-width="1"></line><line x1="464.962191529556" y1="64.46514708427702" x2="465.79841923569717" y2="72.4213222472232" stroke="#1a1814" stroke-width="1"></line><circle cx="838.6833329081849" cy="185.31666709181502" r="10" fill="#3a3832" stroke="#1a1814" stroke-width="2"></circle>
          <line x1="832.6833329081849" y1="185.31666709181502" x2="844.6833329081849" y2="185.31666709181502" stroke="#1a1814" stroke-width="1.5"></line><circle cx="838.683332908185" cy="838.6833329081849" r="10" fill="#3a3832" stroke="#1a1814" stroke-width="2"></circle>
          <line x1="832.683332908185" y1="838.6833329081849" x2="844.683332908185" y2="838.6833329081849" stroke="#1a1814" stroke-width="1.5"></line><circle cx="185.31666709181508" cy="838.6833329081851" r="10" fill="#3a3832" stroke="#1a1814" stroke-width="2"></circle>
          <line x1="179.31666709181508" y1="838.6833329081851" x2="191.31666709181508" y2="838.6833329081851" stroke="#1a1814" stroke-width="1.5"></line><circle cx="185.31666709181496" cy="185.31666709181513" r="10" fill="#3a3832" stroke="#1a1814" stroke-width="2"></circle>
          <line x1="179.31666709181496" y1="185.31666709181513" x2="191.31666709181496" y2="185.31666709181513" stroke="#1a1814" stroke-width="1.5"></line><text x="512" y="772" font-family="&#39;JetBrains Mono&#39;, monospace" font-size="18" fill="#1a1814" text-anchor="middle" letter-spacing="4">UTC // 24H</text><rect x="500" y="500" width="24" height="24" fill="#1a1814"></rect></svg>