<svg xmlns="http://www.w3.org/2000/svg" viewBox="0 0 1024 1024" width="1024" height="1024">
  <defs>
    <radialGradient id="bbp_glass" cx="0.5" cy="0.45" r="0.7">
      <stop offset="0" stop-color="#f4ecd8"></stop>
      <stop offset="0.7" stop-color="#e8dcc0"></stop>
      <stop offset="1" stop-color="#bfae87"></stop>
    </radialGradient>
    <linearGradient id="bbp_gold" x1="0" y1="0" x2="0" y2="1">
      <stop offset="0" stop-color="#b59243"></stop>
      <stop offset="0.5" stop-color="#8a6a26"></stop>
      <stop offset="1" stop-color="#5e4717"></stop>
    </linearGradient>
    <pattern id="bbp_grime" patternUnits="userSpaceOnUse" width="6" height="6">
      <rect width="6" height="6" fill="#1a1612"></rect>
      <circle cx="2" cy="2" r="0.4" fill="#2a241c"></circle>
      <circle cx="4" cy="5" r="0.3" fill="#0f0c08"></circle>
    </pattern>
  </defs>
  <circle cx="512" cy="512" r="480" fill="url(#bbp_grime)" stroke="#0a0806" stroke-width="6"></circle>
  <circle cx="512" cy="512" r="468" fill="none" stroke="#5e4717" stroke-width="3" opacity="0.6"></circle>
  <circle cx="512" cy="512" r="458" fill="none" stroke="#0a0806" stroke-width="2"></circle>
  <circle cx="512" cy="512" r="450" fill="url(#bbp_glass)"></circle>
<g font-family="&#39;Trajan Pro&#39;, &#39;Times New Roman&#39;, serif" font-weight="700" fill="url(#bbp_gold)" stroke="#3a2c0e" stroke-width="0.8" text-anchor="middle"><text x="512" y="125" font-size="62" transform="rotate(0 512 107)">XII</text><text x="714.5" y="179.25971146730234" font-size="62" transform="rotate(30 714.5 161.25971146730234)">I</text><text x="862.7402885326976" y="327.49999999999994" font-size="62" transform="rotate(60 862.7402885326976 309.49999999999994)">II</text><text x="917" y="530" font-size="62" transform="rotate(90 917 512)">III</text><text x="862.7402885326976" y="732.4999999999999" font-size="62" transform="rotate(120 862.7402885326976 714.4999999999999)">IIII</text><text x="714.5" y="880.7402885326976" font-size="62" transform="rotate(150 714.5 862.7402885326976)">V</text><text x="512" y="935" font-size="62" transform="rotate(180 512 917)">VI</text><text x="309.49999999999994" y="880.7402885326976" font-size="62" transform="rotate(210 309.49999999999994 862.7402885326976)">VII</text><text x="161.25971146730245" y="732.5000000000002" font-size="62" transform="rotate(240 161.25971146730245 714.5000000000002)">VIII</text><text x="107" y="530.0000000000001" font-size="62" transform="rotate(270 107 512.0000000000001)">IX</text><text x="161.2597114673024" y="327.49999999999994" font-size="62" transform="rotate(300 161.2597114673024 309.49999999999994)">X</text><text x="309.49999999999983" y="179.25971146730245" font-size="62" transform="rotate(330 309.49999999999983 161.25971146730245)">XI</text></g><g fill="#0a0806"><rect x="509.5" y="60" width="5" height="14" transform="rotate(0 512 67)" fill="url(#bbp_gold)"></rect><circle cx="558.8287515439088" cy="66.45419087501358" r="2" opacity="0.6"></circle><circle cx="605.1444374863562" cy="73.78987487125505" r="2" opacity="0.6"></circle><circle cx="650.4396134799764" cy="85.92668069977123" r="2" opacity="0.6"></circle><circle cx="694.2180160979585" cy="102.73163497611483" r="2" opacity="0.6"></circle><rect x="732" y="119.61869531592475" width="5" height="14" transform="rotate(30 734.5 126.61869531592475)" fill="url(#bbp_gold)"></rect><circle cx="775.327793027028" cy="149.56038652002354" r="2" opacity="0.6"></circle><circle cx="811.7705116487684" cy="179.07111818612736" r="2" opacity="0.6"></circle><circle cx="844.9288818138726" cy="212.2294883512315" r="2" opacity="0.6"></circle><circle cx="874.4396134799765" cy="248.67220697297205" r="2" opacity="0.6"></circle><rect x="894.8813046840752" y="282.49999999999994" width="5" height="14" transform="rotate(60 897.3813046840752 289.49999999999994)" fill="url(#bbp_gold)"></rect><circle cx="921.2683650238852" cy="329.7819839020415" r="2" opacity="0.6"></circle><circle cx="938.0733193002288" cy="373.56038652002354" r="2" opacity="0.6"></circle><circle cx="950.210125128745" cy="418.85556251364375" r="2" opacity="0.6"></circle><circle cx="957.5458091249864" cy="465.17124845609123" r="2" opacity="0.6"></circle><rect x="954.5" y="505" width="5" height="14" transform="rotate(90 957 512)" fill="url(#bbp_gold)"></rect><circle cx="957.5458091249865" cy="558.8287515439087" r="2" opacity="0.6"></circle><circle cx="950.210125128745" cy="605.1444374863561" r="2" opacity="0.6"></circle><circle cx="938.0733193002288" cy="650.4396134799764" r="2" opacity="0.6"></circle><circle cx="921.2683650238853" cy="694.2180160979584" r="2" opacity="0.6"></circle><rect x="894.8813046840753" y="727.4999999999999" width="5" height="14" transform="rotate(120 897.3813046840753 734.4999999999999)" fill="url(#bbp_gold)"></rect><circle cx="874.4396134799765" cy="775.3277930270278" r="2" opacity="0.6"></circle><circle cx="844.9288818138726" cy="811.7705116487684" r="2" opacity="0.6"></circle><circle cx="811.7705116487685" cy="844.9288818138725" r="2" opacity="0.6"></circle><circle cx="775.3277930270281" cy="874.4396134799764" r="2" opacity="0.6"></circle><rect x="732" y="890.3813046840753" width="5" height="14" transform="rotate(150 734.5 897.3813046840753)" fill="url(#bbp_gold)"></rect><circle cx="694.2180160979585" cy="921.2683650238852" r="2" opacity="0.6"></circle><circle cx="650.4396134799765" cy="938.0733193002288" r="2" opacity="0.6"></circle><circle cx="605.1444374863562" cy="950.210125128745" r="2" opacity="0.6"></circle><circle cx="558.8287515439089" cy="957.5458091249864" r="2" opacity="0.6"></circle><rect x="509.5" y="950" width="5" height="14" transform="rotate(180 512 957)" fill="url(#bbp_gold)"></rect><circle cx="465.17124845609146" cy="957.5458091249865" r="2" opacity="0.6"></circle><circle cx="418.8555625136439" cy="950.210125128745" r="2" opacity="0.6"></circle><circle cx="373.5603865200234" cy="938.0733193002288" r="2" opacity="0.6"></circle><circle cx="329.7819839020417" cy="921.2683650238853" r="2" opacity="0.6"></circle><rect x="286.99999999999994" y="890.3813046840752" width="5" height="14" transform="rotate(210 289.49999999999994 897.3813046840752)" fill="url(#bbp_gold)"></rect><circle cx="248.6722069729721" cy="874.4396134799765" r="2" opacity="0.6"></circle><circle cx="212.2294883512315" cy="844.9288818138726" r="2" opacity="0.6"></circle><circle cx="179.07111818612748" cy="811.7705116487687" r="2" opacity="0.6"></circle><circle cx="149.5603865200236" cy="775.3277930270281" r="2" opacity="0.6"></circle><rect x="124.11869531592492" y="727.5000000000002" width="5" height="14" transform="rotate(240 126.61869531592492 734.5000000000002)" fill="url(#bbp_gold)"></rect><circle cx="102.73163497611478" cy="694.2180160979584" r="2" opacity="0.6"></circle><circle cx="85.92668069977123" cy="650.4396134799765" r="2" opacity="0.6"></circle><circle cx="73.78987487125511" cy="605.1444374863564" r="2" opacity="0.6"></circle><circle cx="66.45419087501352" cy="558.8287515439088" r="2" opacity="0.6"></circle><rect x="64.5" y="505.0000000000001" width="5" height="14" transform="rotate(270 67 512.0000000000001)" fill="url(#bbp_gold)"></rect><circle cx="66.45419087501352" cy="465.17124845609146" r="2" opacity="0.6"></circle><circle cx="73.789874871255" cy="418.85556251364414" r="2" opacity="0.6"></circle><circle cx="85.92668069977117" cy="373.56038652002366" r="2" opacity="0.6"></circle><circle cx="102.73163497611483" cy="329.78198390204136" r="2" opacity="0.6"></circle><rect x="124.11869531592481" y="282.49999999999994" width="5" height="14" transform="rotate(300 126.61869531592481 289.49999999999994)" fill="url(#bbp_gold)"></rect><circle cx="149.56038652002348" cy="248.67220697297216" r="2" opacity="0.6"></circle><circle cx="179.07111818612725" cy="212.22948835123168" r="2" opacity="0.6"></circle><circle cx="212.22948835123157" cy="179.07111818612736" r="2" opacity="0.6"></circle><circle cx="248.67220697297194" cy="149.5603865200236" r="2" opacity="0.6"></circle><rect x="286.9999999999998" y="119.61869531592492" width="5" height="14" transform="rotate(330 289.4999999999998 126.61869531592492)" fill="url(#bbp_gold)"></rect><circle cx="329.78198390204153" cy="102.73163497611478" r="2" opacity="0.6"></circle><circle cx="373.5603865200234" cy="85.92668069977123" r="2" opacity="0.6"></circle><circle cx="418.8555625136436" cy="73.78987487125511" r="2" opacity="0.6"></circle><circle cx="465.1712484560913" cy="66.45419087501358" r="2" opacity="0.6"></circle></g><g opacity="0.18" stroke="#3a2c0e" stroke-width="1" fill="none">
    <path d="M 332 132 q -10 60 0 120"></path>
    <path d="M 712 152 q 8 80 -4 160"></path>
    <path d="M 172 612 q 20 60 0 140"></path>
  </g><circle cx="512" cy="512" r="22" fill="#0a0806" stroke="url(#bbp_gold)" stroke-width="3"></circle></svg>