<svg xmlns="http://www.w3.org/2000/svg" viewBox="0 0 1024 1024" width="1024" height="1024">
  <defs>
    <radialGradient id="vc_dial" cx="0.5" cy="0.45" r="0.7">
      <stop offset="0" stop-color="#fbf3df"></stop>
      <stop offset="1" stop-color="#e2d2a3"></stop>
    </radialGradient>
    <linearGradient id="vc_brass" x1="0" y1="0" x2="0" y2="1">
      <stop offset="0" stop-color="#d4a93a"></stop>
      <stop offset="1" stop-color="#7a5a14"></stop>
    </linearGradient>
  </defs>
  <circle cx="512" cy="512" r="470" fill="#5a1a1a" stroke="url(#vc_brass)" stroke-width="6"></circle>
  <circle cx="512" cy="512" r="448" fill="url(#vc_dial)" stroke="#3d0f0f" stroke-width="2"></circle>
<circle cx="512" cy="512" r="420" fill="none" stroke="#3d0f0f" stroke-width="1.5"></circle><circle cx="512" cy="512" r="412" fill="none" stroke="#3d0f0f" stroke-width="0.8"></circle><line x1="512" y1="92" x2="512" y2="120" stroke="#3d0f0f" stroke-width="3"></line><line x1="555.9019545724144" y1="94.30080394532524" x2="554.8566699397379" y2="104.24602289900793" stroke="#3d0f0f" stroke-width="1"></line><line x1="599.3229101434589" y1="101.17800769180161" x2="597.2437932352814" y2="110.9594836991397" stroke="#3d0f0f" stroke-width="1"></line><line x1="641.7871376374779" y1="112.55626315603553" x2="638.6969676937284" y2="122.06682831898706" stroke="#3d0f0f" stroke-width="1"></line><line x1="682.8293900918361" y1="128.31090779010765" x2="678.762023661078" y2="137.44636236653366" stroke="#3d0f0f" stroke-width="1"></line><line x1="722" y1="148.26933041053576" x2="708" y2="172.51804171650002" stroke="#3d0f0f" stroke-width="3"></line><line x1="758.8698059628387" y1="172.21286236252206" x2="752.991953439914" y2="180.30303230627152" stroke="#3d0f0f" stroke-width="1"></line><line x1="793.0348546707205" y1="199.87917329949443" x2="786.3435486071319" y2="207.31062155426838" stroke="#3d0f0f" stroke-width="1"></line><line x1="824.1208267005056" y1="230.96514532927955" x2="816.6893784457316" y2="237.65645139286812" stroke="#3d0f0f" stroke-width="1"></line><line x1="851.7871376374779" y1="265.1301940371613" x2="843.6969676937285" y2="271.008046560086" stroke="#3d0f0f" stroke-width="1"></line><line x1="875.7306695894642" y1="301.99999999999994" x2="851.4819582834999" y2="315.99999999999994" stroke="#3d0f0f" stroke-width="3"></line><line x1="895.6890922098924" y1="341.1706099081639" x2="886.5536376334663" y2="345.23797633892195" stroke="#3d0f0f" stroke-width="1"></line><line x1="911.4437368439644" y1="382.21286236252206" x2="901.9331716810129" y2="385.3030323062716" stroke="#3d0f0f" stroke-width="1"></line><line x1="922.8219923081983" y1="424.67708985654104" x2="913.0405163008603" y2="426.7562067647186" stroke="#3d0f0f" stroke-width="1"></line><line x1="929.6991960546748" y1="468.09804542758553" x2="919.7539771009921" y2="469.1433300602621" stroke="#3d0f0f" stroke-width="1"></line><line x1="932" y1="512" x2="904" y2="512" stroke="#3d0f0f" stroke-width="3"></line><line x1="929.6991960546748" y1="555.9019545724144" x2="919.7539771009921" y2="554.8566699397379" stroke="#3d0f0f" stroke-width="1"></line><line x1="922.8219923081983" y1="599.3229101434588" x2="913.0405163008603" y2="597.2437932352813" stroke="#3d0f0f" stroke-width="1"></line><line x1="911.4437368439645" y1="641.7871376374778" x2="901.9331716810129" y2="638.6969676937284" stroke="#3d0f0f" stroke-width="1"></line><line x1="895.6890922098924" y1="682.829390091836" x2="886.5536376334665" y2="678.762023661078" stroke="#3d0f0f" stroke-width="1"></line><line x1="875.7306695894642" y1="721.9999999999999" x2="851.4819582835" y2="707.9999999999999" stroke="#3d0f0f" stroke-width="3"></line><line x1="851.7871376374779" y1="758.8698059628387" x2="843.6969676937285" y2="752.9919534399139" stroke="#3d0f0f" stroke-width="1"></line><line x1="824.1208267005056" y1="793.0348546707205" x2="816.6893784457316" y2="786.3435486071319" stroke="#3d0f0f" stroke-width="1"></line><line x1="793.0348546707205" y1="824.1208267005055" x2="786.3435486071319" y2="816.6893784457316" stroke="#3d0f0f" stroke-width="1"></line><line x1="758.8698059628388" y1="851.7871376374778" x2="752.991953439914" y2="843.6969676937284" stroke="#3d0f0f" stroke-width="1"></line><line x1="722" y1="875.7306695894642" x2="708" y2="851.4819582835" stroke="#3d0f0f" stroke-width="3"></line><line x1="682.8293900918362" y1="895.6890922098924" x2="678.7620236610782" y2="886.5536376334663" stroke="#3d0f0f" stroke-width="1"></line><line x1="641.7871376374779" y1="911.4437368439644" x2="638.6969676937285" y2="901.9331716810129" stroke="#3d0f0f" stroke-width="1"></line><line x1="599.3229101434589" y1="922.8219923081983" x2="597.2437932352814" y2="913.0405163008603" stroke="#3d0f0f" stroke-width="1"></line><line x1="555.9019545724145" y1="929.6991960546748" x2="554.856669939738" y2="919.7539771009921" stroke="#3d0f0f" stroke-width="1"></line><line x1="512" y1="932" x2="512" y2="904" stroke="#3d0f0f" stroke-width="3"></line><line x1="468.0980454275857" y1="929.6991960546748" x2="469.14333006026226" y2="919.7539771009921" stroke="#3d0f0f" stroke-width="1"></line><line x1="424.6770898565412" y1="922.8219923081983" x2="426.7562067647188" y2="913.0405163008603" stroke="#3d0f0f" stroke-width="1"></line><line x1="382.21286236252195" y1="911.4437368439644" x2="385.30303230627146" y2="901.9331716810129" stroke="#3d0f0f" stroke-width="1"></line><line x1="341.17060990816407" y1="895.6890922098925" x2="345.23797633892207" y2="886.5536376334665" stroke="#3d0f0f" stroke-width="1"></line><line x1="301.99999999999994" y1="875.7306695894642" x2="315.99999999999994" y2="851.4819582834999" stroke="#3d0f0f" stroke-width="3"></line><line x1="265.13019403716135" y1="851.787137637478" x2="271.0080465600861" y2="843.6969676937285" stroke="#3d0f0f" stroke-width="1"></line><line x1="230.96514532927955" y1="824.1208267005056" x2="237.65645139286812" y2="816.6893784457316" stroke="#3d0f0f" stroke-width="1"></line><line x1="199.87917329949448" y1="793.0348546707205" x2="207.31062155426844" y2="786.343548607132" stroke="#3d0f0f" stroke-width="1"></line><line x1="172.21286236252212" y1="758.8698059628388" x2="180.30303230627158" y2="752.991953439914" stroke="#3d0f0f" stroke-width="1"></line><line x1="148.26933041053587" y1="722.0000000000002" x2="172.51804171650014" y2="708.0000000000002" stroke="#3d0f0f" stroke-width="3"></line><line x1="128.3109077901076" y1="682.8293900918361" x2="137.4463623665336" y2="678.762023661078" stroke="#3d0f0f" stroke-width="1"></line><line x1="112.55626315603553" y1="641.7871376374779" x2="122.06682831898706" y2="638.6969676937285" stroke="#3d0f0f" stroke-width="1"></line><line x1="101.17800769180167" y1="599.3229101434591" x2="110.9594836991397" y2="597.2437932352815" stroke="#3d0f0f" stroke-width="1"></line><line x1="94.30080394532519" y1="555.9019545724144" x2="104.24602289900793" y2="554.8566699397379" stroke="#3d0f0f" stroke-width="1"></line><line x1="92" y1="512.0000000000001" x2="120" y2="512.0000000000001" stroke="#3d0f0f" stroke-width="3"></line><line x1="94.30080394532519" y1="468.09804542758576" x2="104.24602289900793" y2="469.14333006026226" stroke="#3d0f0f" stroke-width="1"></line><line x1="101.17800769180155" y1="424.6770898565414" x2="110.95948369913964" y2="426.75620676471897" stroke="#3d0f0f" stroke-width="1"></line><line x1="112.55626315603547" y1="382.2128623625222" x2="122.066828318987" y2="385.30303230627163" stroke="#3d0f0f" stroke-width="1"></line><line x1="128.3109077901077" y1="341.1706099081638" x2="137.44636236653366" y2="345.2379763389218" stroke="#3d0f0f" stroke-width="1"></line><line x1="148.26933041053582" y1="301.99999999999994" x2="172.51804171650008" y2="315.99999999999994" stroke="#3d0f0f" stroke-width="3"></line><line x1="172.212862362522" y1="265.13019403716135" x2="180.30303230627152" y2="271.0080465600861" stroke="#3d0f0f" stroke-width="1"></line><line x1="199.87917329949425" y1="230.96514532927972" x2="207.3106215542682" y2="237.6564513928683" stroke="#3d0f0f" stroke-width="1"></line><line x1="230.9651453292796" y1="199.87917329949443" x2="237.65645139286818" y2="207.31062155426838" stroke="#3d0f0f" stroke-width="1"></line><line x1="265.1301940371612" y1="172.21286236252212" x2="271.0080465600859" y2="180.30303230627158" stroke="#3d0f0f" stroke-width="1"></line><line x1="301.9999999999998" y1="148.26933041053587" x2="315.99999999999983" y2="172.51804171650014" stroke="#3d0f0f" stroke-width="3"></line><line x1="341.1706099081639" y1="128.3109077901076" x2="345.23797633892195" y2="137.4463623665336" stroke="#3d0f0f" stroke-width="1"></line><line x1="382.21286236252195" y1="112.55626315603553" x2="385.30303230627146" y2="122.06682831898706" stroke="#3d0f0f" stroke-width="1"></line><line x1="424.6770898565409" y1="101.17800769180167" x2="426.75620676471846" y2="110.9594836991397" stroke="#3d0f0f" stroke-width="1"></line><line x1="468.0980454275856" y1="94.30080394532524" x2="469.1433300602621" y2="104.24602289900793" stroke="#3d0f0f" stroke-width="1"></line><g font-family="&#39;Trajan Pro&#39;, &#39;Times New Roman&#39;, serif" font-weight="700" fill="url(#vc_brass)" stroke="#3a2c0e" stroke-width="0.8" text-anchor="middle"><text x="512" y="170" font-size="54" transform="rotate(0 512 152)">XII</text><text x="692" y="218.23085463760208" font-size="54" transform="rotate(30 692 200.23085463760208)">I</text><text x="823.7691453623979" y="350" font-size="54" transform="rotate(60 823.7691453623979 332)">II</text><text x="872" y="530" font-size="54" transform="rotate(90 872 512)">III</text><text x="823.7691453623979" y="709.9999999999999" font-size="54" transform="rotate(120 823.7691453623979 691.9999999999999)">IIII</text><text x="692" y="841.7691453623979" font-size="54" transform="rotate(150 692 823.7691453623979)">V</text><text x="512" y="890" font-size="54" transform="rotate(180 512 872)">VI</text><text x="332" y="841.7691453623979" font-size="54" transform="rotate(210 332 823.7691453623979)">VII</text><text x="200.2308546376022" y="710.0000000000002" font-size="54" transform="rotate(240 200.2308546376022 692.0000000000002)">VIII</text><text x="152" y="530.0000000000001" font-size="54" transform="rotate(270 152 512.0000000000001)">IX</text><text x="200.23085463760208" y="350" font-size="54" transform="rotate(300 200.23085463760208 332)">X</text><text x="331.99999999999983" y="218.2308546376022" font-size="54" transform="rotate(330 331.99999999999983 200.2308546376022)">XI</text></g><g transform="translate(596.1161896583193,198.0741064560528) rotate(15) scale(0.6)" fill="url(#vc_brass)" opacity="0.7">
      <path d="M 0 -16 C 6 -8 10 0 6 8 C 4 12 -4 12 -6 8 C -10 0 -6 -8 0 -16 Z"></path>
      <ellipse cx="0" cy="10" rx="10" ry="3"></ellipse>
    </g><g transform="translate(825.9258935439473,596.1161896583193) rotate(105) scale(0.6)" fill="url(#vc_brass)" opacity="0.7">
      <path d="M 0 -16 C 6 -8 10 0 6 8 C 4 12 -4 12 -6 8 C -10 0 -6 -8 0 -16 Z"></path>
      <ellipse cx="0" cy="10" rx="10" ry="3"></ellipse>
    </g><g transform="translate(427.8838103416809,825.9258935439473) rotate(195) scale(0.6)" fill="url(#vc_brass)" opacity="0.7">
      <path d="M 0 -16 C 6 -8 10 0 6 8 C 4 12 -4 12 -6 8 C -10 0 -6 -8 0 -16 Z"></path>
      <ellipse cx="0" cy="10" rx="10" ry="3"></ellipse>
    </g><g transform="translate(198.07410645605285,427.8838103416806) rotate(285) scale(0.6)" fill="url(#vc_brass)" opacity="0.7">
      <path d="M 0 -16 C 6 -8 10 0 6 8 C 4 12 -4 12 -6 8 C -10 0 -6 -8 0 -16 Z"></path>
      <ellipse cx="0" cy="10" rx="10" ry="3"></ellipse>
    </g><circle cx="512" cy="512" r="60" fill="none" stroke="url(#vc_brass)" stroke-width="2"></circle><circle cx="512" cy="512" r="20" fill="#3d0f0f" stroke="url(#vc_brass)" stroke-width="2"></circle></svg>